<?xml version="1.0" encoding="UTF-8"?>
<svg xmlns="http://www.w3.org/2000/svg" xmlns:xlink="http://www.w3.org/1999/xlink" width="285pt" height="105pt" viewBox="0 0 285 105" version="1.1">
<g id="surface1">
<path style=" stroke:none;fill-rule:nonzero;fill:rgb(13.699341%,12.199402%,12.5%);fill-opacity:1;" d="M 1.636719 96.472656 L 3.1875 96.472656 L 3.1875 100.660156 C 3.1875 101.324219 3.207031 101.757813 3.242188 101.953125 C 3.3125 102.269531 3.46875 102.523438 3.71875 102.714844 C 3.96875 102.90625 4.308594 103 4.742188 103 C 5.183594 103 5.515625 102.910156 5.738281 102.730469 C 5.960938 102.550781 6.097656 102.328125 6.140625 102.0625 C 6.1875 101.800781 6.207031 101.363281 6.207031 100.75 L 6.207031 96.472656 L 7.757813 96.472656 L 7.757813 100.535156 C 7.757813 101.460938 7.71875 102.117188 7.632813 102.5 C 7.550781 102.886719 7.394531 103.207031 7.171875 103.472656 C 6.945313 103.734375 6.644531 103.945313 6.269531 104.101563 C 5.890625 104.257813 5.398438 104.335938 4.789063 104.335938 C 4.054688 104.335938 3.5 104.25 3.121094 104.082031 C 2.742188 103.910156 2.441406 103.6875 2.222656 103.417969 C 2.003906 103.144531 1.859375 102.859375 1.789063 102.558594 C 1.6875 102.117188 1.636719 101.460938 1.636719 100.597656 Z M 9.410156 104.203125 L 9.410156 96.472656 L 10.917969 96.472656 L 14.0625 101.636719 L 14.0625 96.472656 L 15.503906 96.472656 L 15.503906 104.203125 L 13.945313 104.203125 L 10.851563 99.160156 L 10.851563 104.203125 Z M 17.09375 104.203125 L 17.09375 96.472656 L 18.644531 96.472656 L 18.644531 104.203125 Z M 22.082031 104.203125 L 19.335938 96.472656 L 21.019531 96.472656 L 22.960938 102.195313 L 24.839844 96.472656 L 26.484375 96.472656 L 23.734375 104.203125 Z M 27.277344 104.203125 L 27.277344 96.472656 L 32.96875 96.472656 L 32.96875 97.78125 L 28.828125 97.78125 L 28.828125 99.496094 L 32.683594 99.496094 L 32.683594 100.796875 L 28.828125 100.796875 L 28.828125 102.902344 L 33.117188 102.902344 L 33.117188 104.203125 Z M 34.4375 104.203125 L 34.4375 96.472656 L 37.703125 96.472656 C 38.523438 96.472656 39.117188 96.542969 39.488281 96.679688 C 39.863281 96.820313 40.160156 97.066406 40.382813 97.421875 C 40.605469 97.777344 40.71875 98.183594 40.71875 98.640625 C 40.71875 99.21875 40.546875 99.699219 40.210938 100.078125 C 39.871094 100.453125 39.363281 100.695313 38.691406 100.792969 C 39.027344 100.988281 39.304688 101.207031 39.523438 101.441406 C 39.738281 101.675781 40.03125 102.09375 40.402344 102.695313 L 41.34375 104.203125 L 39.488281 104.203125 L 38.367188 102.519531 C 37.96875 101.917969 37.695313 101.542969 37.550781 101.386719 C 37.402344 101.230469 37.246094 101.121094 37.082031 101.0625 C 36.917969 101.003906 36.660156 100.976563 36.300781 100.976563 L 35.988281 100.976563 L 35.988281 104.203125 Z M 35.988281 99.742188 L 37.136719 99.742188 C 37.878906 99.742188 38.34375 99.710938 38.53125 99.648438 C 38.714844 99.585938 38.859375 99.476563 38.964844 99.320313 C 39.066406 99.164063 39.121094 98.972656 39.121094 98.738281 C 39.121094 98.480469 39.050781 98.269531 38.914063 98.109375 C 38.777344 97.949219 38.582031 97.847656 38.328125 97.804688 C 38.203125 97.789063 37.828125 97.78125 37.199219 97.78125 L 35.988281 97.78125 Z M 41.789063 101.6875 L 43.296875 101.539063 C 43.386719 102.050781 43.570313 102.425781 43.847656 102.664063 C 44.125 102.902344 44.5 103.023438 44.972656 103.023438 C 45.46875 103.023438 45.847656 102.917969 46.097656 102.703125 C 46.351563 102.492188 46.480469 102.242188 46.480469 101.957031 C 46.480469 101.773438 46.425781 101.621094 46.320313 101.492188 C 46.214844 101.363281 46.027344 101.25 45.761719 101.15625 C 45.582031 101.09375 45.167969 100.980469 44.519531 100.820313 C 43.691406 100.613281 43.105469 100.355469 42.773438 100.050781 C 42.300781 99.628906 42.0625 99.109375 42.0625 98.496094 C 42.0625 98.101563 42.175781 97.734375 42.398438 97.390625 C 42.617188 97.050781 42.9375 96.789063 43.355469 96.609375 C 43.773438 96.429688 44.277344 96.339844 44.867188 96.339844 C 45.832031 96.339844 46.554688 96.550781 47.042969 96.976563 C 47.53125 97.40625 47.785156 97.972656 47.808594 98.683594 L 46.261719 98.75 C 46.195313 98.351563 46.050781 98.066406 45.832031 97.894531 C 45.613281 97.71875 45.289063 97.632813 44.851563 97.632813 C 44.402344 97.632813 44.046875 97.726563 43.792969 97.914063 C 43.628906 98.03125 43.546875 98.191406 43.546875 98.390625 C 43.546875 98.574219 43.625 98.730469 43.777344 98.859375 C 43.972656 99.027344 44.449219 99.199219 45.203125 99.378906 C 45.957031 99.558594 46.515625 99.742188 46.875 99.933594 C 47.238281 100.125 47.519531 100.386719 47.726563 100.71875 C 47.929688 101.054688 48.03125 101.464844 48.03125 101.953125 C 48.03125 102.394531 47.910156 102.8125 47.664063 103.195313 C 47.417969 103.582031 47.074219 103.871094 46.628906 104.058594 C 46.179688 104.246094 45.621094 104.34375 44.957031 104.34375 C 43.984375 104.34375 43.238281 104.117188 42.71875 103.664063 C 42.199219 103.210938 41.886719 102.554688 41.789063 101.6875 Z M 49.289063 104.203125 L 49.289063 96.472656 L 50.835938 96.472656 L 50.835938 104.203125 Z M 52.3125 96.472656 L 55.144531 96.472656 C 55.78125 96.472656 56.269531 96.519531 56.605469 96.621094 C 57.054688 96.753906 57.441406 96.988281 57.761719 97.332031 C 58.085938 97.671875 58.328125 98.089844 58.496094 98.582031 C 58.664063 99.078125 58.746094 99.6875 58.746094 100.414063 C 58.746094 101.046875 58.667969 101.597656 58.511719 102.058594 C 58.320313 102.621094 58.046875 103.074219 57.691406 103.421875 C 57.421875 103.6875 57.058594 103.894531 56.601563 104.039063 C 56.257813 104.152344 55.800781 104.203125 55.226563 104.203125 L 52.3125 104.203125 Z M 53.859375 97.78125 L 53.859375 102.902344 L 55.019531 102.902344 C 55.449219 102.902344 55.765625 102.878906 55.957031 102.828125 C 56.207031 102.765625 56.414063 102.660156 56.582031 102.507813 C 56.75 102.355469 56.882813 102.105469 56.988281 101.757813 C 57.09375 101.414063 57.144531 100.941406 57.144531 100.34375 C 57.144531 99.746094 57.09375 99.289063 56.988281 98.96875 C 56.882813 98.644531 56.734375 98.394531 56.546875 98.21875 C 56.359375 98.039063 56.121094 97.917969 55.832031 97.855469 C 55.613281 97.804688 55.191406 97.78125 54.554688 97.78125 Z M 66.988281 104.203125 L 65.300781 104.203125 L 64.628906 102.449219 L 61.558594 102.449219 L 60.925781 104.203125 L 59.28125 104.203125 L 62.273438 96.472656 L 63.914063 96.472656 Z M 64.132813 101.144531 L 63.074219 98.277344 L 62.039063 101.144531 Z M 67.804688 96.472656 L 70.640625 96.472656 C 71.277344 96.472656 71.765625 96.519531 72.101563 96.621094 C 72.550781 96.753906 72.9375 96.988281 73.257813 97.332031 C 73.578125 97.671875 73.824219 98.089844 73.992188 98.582031 C 74.15625 99.078125 74.242188 99.6875 74.242188 100.414063 C 74.242188 101.046875 74.164063 101.597656 74.007813 102.058594 C 73.816406 102.621094 73.539063 103.074219 73.183594 103.421875 C 72.914063 103.6875 72.550781 103.894531 72.09375 104.039063 C 71.753906 104.152344 71.296875 104.203125 70.722656 104.203125 L 67.804688 104.203125 Z M 69.355469 97.78125 L 69.355469 102.902344 L 70.511719 102.902344 C 70.945313 102.902344 71.257813 102.878906 71.453125 102.828125 C 71.703125 102.765625 71.910156 102.660156 72.078125 102.507813 C 72.242188 102.355469 72.378906 102.105469 72.480469 101.757813 C 72.585938 101.414063 72.640625 100.941406 72.640625 100.34375 C 72.640625 99.746094 72.585938 99.289063 72.480469 98.96875 C 72.378906 98.644531 72.230469 98.394531 72.042969 98.21875 C 71.851563 98.039063 71.613281 97.917969 71.324219 97.855469 C 71.109375 97.804688 70.683594 97.78125 70.050781 97.78125 Z M 75.558594 104.203125 L 75.558594 96.472656 L 81.25 96.472656 L 81.25 97.78125 L 77.109375 97.78125 L 77.109375 99.496094 L 80.964844 99.496094 L 80.964844 100.796875 L 77.109375 100.796875 L 77.109375 102.902344 L 81.398438 102.902344 L 81.398438 104.203125 Z M 87.421875 104.203125 L 87.421875 97.78125 L 85.144531 97.78125 L 85.144531 96.472656 L 91.246094 96.472656 L 91.246094 97.78125 L 88.972656 97.78125 L 88.972656 104.203125 Z M 92.246094 104.203125 L 92.246094 96.472656 L 97.941406 96.472656 L 97.941406 97.78125 L 93.796875 97.78125 L 93.796875 99.496094 L 97.652344 99.496094 L 97.652344 100.796875 L 93.796875 100.796875 L 93.796875 102.902344 L 98.085938 102.902344 L 98.085938 104.203125 Z M 104.316406 101.363281 L 105.816406 101.839844 C 105.585938 102.683594 105.203125 103.3125 104.667969 103.722656 C 104.132813 104.132813 103.453125 104.335938 102.628906 104.335938 C 101.609375 104.335938 100.769531 103.984375 100.113281 103.285156 C 99.457031 102.582031 99.128906 101.621094 99.128906 100.40625 C 99.128906 99.121094 99.460938 98.121094 100.117188 97.40625 C 100.777344 96.695313 101.644531 96.339844 102.722656 96.339844 C 103.660156 96.339844 104.425781 96.621094 105.011719 97.179688 C 105.359375 97.507813 105.621094 97.984375 105.796875 98.605469 L 104.261719 98.972656 C 104.171875 98.570313 103.984375 98.253906 103.691406 98.023438 C 103.40625 97.789063 103.054688 97.675781 102.644531 97.675781 C 102.074219 97.675781 101.613281 97.878906 101.257813 98.292969 C 100.902344 98.703125 100.726563 99.367188 100.726563 100.289063 C 100.726563 101.269531 100.902344 101.964844 101.25 102.378906 C 101.601563 102.792969 102.054688 103 102.609375 103 C 103.023438 103 103.378906 102.871094 103.675781 102.605469 C 103.972656 102.34375 104.183594 101.925781 104.316406 101.363281 Z M 107.164063 104.203125 L 107.164063 96.472656 L 108.671875 96.472656 L 111.816406 101.636719 L 111.816406 96.472656 L 113.257813 96.472656 L 113.257813 104.203125 L 111.699219 104.203125 L 108.605469 99.160156 L 108.605469 104.203125 Z M 114.582031 100.386719 C 114.582031 99.597656 114.699219 98.9375 114.933594 98.402344 C 115.105469 98.007813 115.34375 97.65625 115.648438 97.339844 C 115.949219 97.03125 116.28125 96.796875 116.640625 96.644531 C 117.117188 96.441406 117.671875 96.339844 118.296875 96.339844 C 119.425781 96.339844 120.332031 96.695313 121.011719 97.402344 C 121.691406 98.105469 122.03125 99.089844 122.03125 100.347656 C 122.03125 101.597656 121.691406 102.574219 121.019531 103.28125 C 120.34375 103.984375 119.441406 104.335938 118.316406 104.335938 C 117.175781 104.335938 116.265625 103.984375 115.59375 103.285156 C 114.917969 102.582031 114.582031 101.617188 114.582031 100.386719 Z M 116.179688 100.332031 C 116.179688 101.207031 116.378906 101.875 116.78125 102.324219 C 117.183594 102.777344 117.691406 103 118.3125 103 C 118.929688 103 119.4375 102.777344 119.832031 102.328125 C 120.226563 101.878906 120.425781 101.207031 120.425781 100.3125 C 120.425781 99.425781 120.234375 98.765625 119.847656 98.328125 C 119.464844 97.890625 118.949219 97.675781 118.3125 97.675781 C 117.671875 97.675781 117.15625 97.894531 116.765625 98.335938 C 116.375 98.777344 116.179688 99.441406 116.179688 100.332031 Z M 123.28125 104.203125 L 123.28125 96.535156 L 124.832031 96.535156 L 124.832031 102.902344 L 128.6875 102.902344 L 128.6875 104.203125 Z M 129.480469 100.386719 C 129.480469 99.597656 129.597656 98.9375 129.828125 98.402344 C 130.003906 98.007813 130.242188 97.65625 130.546875 97.339844 C 130.847656 97.03125 131.179688 96.796875 131.539063 96.644531 C 132.015625 96.441406 132.566406 96.339844 133.191406 96.339844 C 134.324219 96.339844 135.230469 96.695313 135.910156 97.402344 C 136.589844 98.105469 136.929688 99.089844 136.929688 100.347656 C 136.929688 101.597656 136.589844 102.574219 135.914063 103.28125 C 135.242188 103.984375 134.339844 104.335938 133.214844 104.335938 C 132.070313 104.335938 131.164063 103.984375 130.488281 103.285156 C 129.816406 102.582031 129.480469 101.617188 129.480469 100.386719 Z M 131.074219 100.332031 C 131.074219 101.207031 131.277344 101.875 131.679688 102.324219 C 132.082031 102.777344 132.589844 103 133.210938 103 C 133.824219 103 134.335938 102.777344 134.730469 102.328125 C 135.125 101.878906 135.324219 101.207031 135.324219 100.3125 C 135.324219 99.425781 135.132813 98.765625 134.746094 98.328125 C 134.359375 97.890625 133.847656 97.675781 133.210938 97.675781 C 132.570313 97.675781 132.054688 97.894531 131.664063 98.335938 C 131.273438 98.777344 131.074219 99.441406 131.074219 100.332031 Z M 132.25 96.027344 L 132.972656 94.453125 L 134.621094 94.453125 L 133.183594 96.027344 Z M 141.710938 101.363281 L 141.710938 100.058594 L 145.050781 100.058594 L 145.050781 103.140625 C 144.726563 103.457031 144.257813 103.734375 143.640625 103.976563 C 143.023438 104.214844 142.398438 104.335938 141.769531 104.335938 C 140.964844 104.335938 140.265625 104.167969 139.667969 103.828125 C 139.070313 103.488281 138.621094 103.003906 138.320313 102.371094 C 138.019531 101.738281 137.871094 101.054688 137.871094 100.3125 C 137.871094 99.507813 138.039063 98.792969 138.371094 98.164063 C 138.710938 97.539063 139.199219 97.058594 139.847656 96.726563 C 140.339844 96.46875 140.949219 96.339844 141.683594 96.339844 C 142.636719 96.339844 143.382813 96.542969 143.917969 96.945313 C 144.453125 97.347656 144.800781 97.902344 144.953125 98.613281 L 143.414063 98.90625 C 143.304688 98.523438 143.101563 98.222656 142.800781 98.003906 C 142.503906 97.785156 142.132813 97.675781 141.683594 97.675781 C 141.007813 97.675781 140.46875 97.890625 140.066406 98.324219 C 139.667969 98.757813 139.46875 99.398438 139.46875 100.25 C 139.46875 101.164063 139.671875 101.855469 140.078125 102.3125 C 140.480469 102.773438 141.011719 103 141.667969 103 C 141.992188 103 142.320313 102.9375 142.644531 102.808594 C 142.972656 102.679688 143.253906 102.523438 143.484375 102.34375 L 143.484375 101.363281 Z M 146.433594 104.203125 L 146.433594 96.472656 L 147.984375 96.472656 L 147.984375 104.203125 Z M 154.378906 101.363281 L 155.878906 101.839844 C 155.648438 102.683594 155.265625 103.3125 154.730469 103.722656 C 154.195313 104.132813 153.515625 104.335938 152.6875 104.335938 C 151.671875 104.335938 150.832031 103.984375 150.175781 103.285156 C 149.519531 102.582031 149.191406 101.621094 149.191406 100.40625 C 149.191406 99.121094 149.519531 98.121094 150.179688 97.40625 C 150.839844 96.695313 151.707031 96.339844 152.785156 96.339844 C 153.722656 96.339844 154.484375 96.621094 155.074219 97.179688 C 155.421875 97.507813 155.683594 97.984375 155.859375 98.605469 L 154.324219 98.972656 C 154.234375 98.570313 154.046875 98.253906 153.753906 98.023438 C 153.46875 97.789063 153.117188 97.675781 152.703125 97.675781 C 152.136719 97.675781 151.675781 97.878906 151.320313 98.292969 C 150.964844 98.703125 150.789063 99.367188 150.789063 100.289063 C 150.789063 101.269531 150.960938 101.964844 151.3125 102.378906 C 151.660156 102.792969 152.117188 103 152.671875 103 C 153.085938 103 153.441406 102.871094 153.738281 102.605469 C 154.035156 102.34375 154.246094 101.925781 154.378906 101.363281 Z M 164.136719 104.203125 L 162.449219 104.203125 L 161.777344 102.449219 L 158.707031 102.449219 L 158.074219 104.203125 L 156.429688 104.203125 L 159.421875 96.472656 L 161.0625 96.472656 Z M 161.28125 101.144531 L 160.222656 98.277344 L 159.183594 101.144531 Z M 167.550781 104.203125 L 167.550781 96.472656 L 172.8125 96.472656 L 172.8125 97.78125 L 169.101563 97.78125 L 169.101563 99.609375 L 172.304688 99.609375 L 172.304688 100.917969 L 169.101563 100.917969 L 169.101563 104.203125 Z M 174.09375 104.203125 L 174.09375 96.472656 L 179.785156 96.472656 L 179.785156 97.78125 L 175.644531 97.78125 L 175.644531 99.496094 L 179.496094 99.496094 L 179.496094 100.796875 L 175.644531 100.796875 L 175.644531 102.902344 L 179.933594 102.902344 L 179.933594 104.203125 Z M 181.242188 96.472656 L 184.078125 96.472656 C 184.714844 96.472656 185.203125 96.519531 185.539063 96.621094 C 185.988281 96.753906 186.375 96.988281 186.695313 97.332031 C 187.015625 97.671875 187.261719 98.089844 187.429688 98.582031 C 187.597656 99.078125 187.679688 99.6875 187.679688 100.414063 C 187.679688 101.046875 187.601563 101.597656 187.441406 102.058594 C 187.253906 102.621094 186.980469 103.074219 186.621094 103.421875 C 186.351563 103.6875 185.988281 103.894531 185.53125 104.039063 C 185.191406 104.152344 184.734375 104.203125 184.160156 104.203125 L 181.242188 104.203125 Z M 182.792969 97.78125 L 182.792969 102.902344 L 183.949219 102.902344 C 184.382813 102.902344 184.695313 102.878906 184.890625 102.828125 C 185.140625 102.765625 185.347656 102.660156 185.515625 102.507813 C 185.679688 102.355469 185.8125 102.105469 185.921875 101.757813 C 186.023438 101.414063 186.078125 100.941406 186.078125 100.34375 C 186.078125 99.746094 186.023438 99.289063 185.921875 98.96875 C 185.8125 98.644531 185.667969 98.394531 185.480469 98.21875 C 185.289063 98.039063 185.050781 97.917969 184.761719 97.855469 C 184.546875 97.804688 184.121094 97.78125 183.488281 97.78125 Z M 188.996094 104.203125 L 188.996094 96.472656 L 194.6875 96.472656 L 194.6875 97.78125 L 190.546875 97.78125 L 190.546875 99.496094 L 194.398438 99.496094 L 194.398438 100.796875 L 190.546875 100.796875 L 190.546875 102.902344 L 194.835938 102.902344 L 194.835938 104.203125 Z M 196.152344 104.203125 L 196.152344 96.472656 L 199.417969 96.472656 C 200.238281 96.472656 200.835938 96.542969 201.207031 96.679688 C 201.578125 96.820313 201.878906 97.066406 202.101563 97.421875 C 202.324219 97.777344 202.433594 98.183594 202.433594 98.640625 C 202.433594 99.21875 202.265625 99.699219 201.929688 100.078125 C 201.589844 100.453125 201.082031 100.695313 200.40625 100.792969 C 200.742188 100.988281 201.019531 101.207031 201.238281 101.441406 C 201.457031 101.675781 201.75 102.09375 202.121094 102.695313 L 203.058594 104.203125 L 201.203125 104.203125 L 200.085938 102.519531 C 199.6875 101.917969 199.414063 101.542969 199.265625 101.386719 C 199.121094 101.230469 198.964844 101.121094 198.800781 101.0625 C 198.636719 101.003906 198.378906 100.976563 198.019531 100.976563 L 197.707031 100.976563 L 197.707031 104.203125 Z M 197.707031 99.742188 L 198.851563 99.742188 C 199.597656 99.742188 200.0625 99.710938 200.246094 99.648438 C 200.429688 99.585938 200.574219 99.476563 200.683594 99.320313 C 200.785156 99.164063 200.839844 98.972656 200.839844 98.738281 C 200.839844 98.480469 200.769531 98.269531 200.632813 98.109375 C 200.492188 97.949219 200.300781 97.847656 200.046875 97.804688 C 199.921875 97.789063 199.542969 97.78125 198.914063 97.78125 L 197.707031 97.78125 Z M 210.824219 104.203125 L 209.136719 104.203125 L 208.464844 102.449219 L 205.394531 102.449219 L 204.761719 104.203125 L 203.117188 104.203125 L 206.109375 96.472656 L 207.746094 96.472656 Z M 207.96875 101.144531 L 206.910156 98.277344 L 205.871094 101.144531 Z M 211.6875 104.203125 L 211.6875 96.535156 L 213.234375 96.535156 L 213.234375 102.902344 L 217.089844 102.902344 L 217.089844 104.203125 Z M 220.980469 96.472656 L 223.8125 96.472656 C 224.453125 96.472656 224.9375 96.519531 225.273438 96.621094 C 225.726563 96.753906 226.109375 96.988281 226.433594 97.332031 C 226.753906 97.671875 226.996094 98.089844 227.164063 98.582031 C 227.332031 99.078125 227.417969 99.6875 227.417969 100.414063 C 227.417969 101.046875 227.339844 101.597656 227.179688 102.058594 C 226.988281 102.621094 226.714844 103.074219 226.359375 103.421875 C 226.089844 103.6875 225.726563 103.894531 225.269531 104.039063 C 224.929688 104.152344 224.46875 104.203125 223.894531 104.203125 L 220.980469 104.203125 Z M 222.53125 97.78125 L 222.53125 102.902344 L 223.6875 102.902344 C 224.121094 102.902344 224.433594 102.878906 224.625 102.828125 C 224.875 102.765625 225.085938 102.660156 225.253906 102.507813 C 225.417969 102.355469 225.550781 102.105469 225.65625 101.757813 C 225.761719 101.414063 225.816406 100.941406 225.816406 100.34375 C 225.816406 99.746094 225.761719 99.289063 225.65625 98.96875 C 225.550781 98.644531 225.40625 98.394531 225.21875 98.21875 C 225.027344 98.039063 224.789063 97.917969 224.5 97.855469 C 224.28125 97.804688 223.859375 97.78125 223.226563 97.78125 Z M 228.417969 100.386719 C 228.417969 99.597656 228.535156 98.9375 228.769531 98.402344 C 228.941406 98.007813 229.179688 97.65625 229.484375 97.339844 C 229.785156 97.03125 230.117188 96.796875 230.476563 96.644531 C 230.953125 96.441406 231.507813 96.339844 232.132813 96.339844 C 233.261719 96.339844 234.167969 96.695313 234.847656 97.402344 C 235.527344 98.105469 235.867188 99.089844 235.867188 100.347656 C 235.867188 101.597656 235.527344 102.574219 234.855469 103.28125 C 234.179688 103.984375 233.277344 104.335938 232.152344 104.335938 C 231.011719 104.335938 230.101563 103.984375 229.429688 103.285156 C 228.753906 102.582031 228.417969 101.617188 228.417969 100.386719 Z M 230.015625 100.332031 C 230.015625 101.207031 230.214844 101.875 230.617188 102.324219 C 231.019531 102.777344 231.527344 103 232.148438 103 C 232.765625 103 233.273438 102.777344 233.667969 102.328125 C 234.0625 101.878906 234.261719 101.207031 234.261719 100.3125 C 234.261719 99.425781 234.070313 98.765625 233.683594 98.328125 C 233.300781 97.890625 232.785156 97.675781 232.148438 97.675781 C 231.507813 97.675781 230.992188 97.894531 230.601563 98.335938 C 230.210938 98.777344 230.015625 99.441406 230.015625 100.332031 Z M 240.058594 104.203125 L 240.058594 96.472656 L 242.546875 96.472656 C 243.488281 96.472656 244.101563 96.511719 244.386719 96.589844 C 244.828125 96.703125 245.199219 96.957031 245.496094 97.34375 C 245.792969 97.734375 245.941406 98.238281 245.941406 98.851563 C 245.941406 99.324219 245.855469 99.726563 245.683594 100.046875 C 245.511719 100.371094 245.296875 100.625 245.03125 100.8125 C 244.765625 100.996094 244.5 101.117188 244.226563 101.175781 C 243.855469 101.25 243.320313 101.289063 242.617188 101.289063 L 241.605469 101.289063 L 241.605469 104.203125 Z M 241.605469 97.78125 L 241.605469 99.972656 L 242.453125 99.972656 C 243.066406 99.972656 243.476563 99.933594 243.683594 99.851563 C 243.886719 99.773438 244.046875 99.644531 244.164063 99.472656 C 244.28125 99.300781 244.339844 99.101563 244.339844 98.871094 C 244.339844 98.589844 244.257813 98.359375 244.09375 98.175781 C 243.933594 97.992188 243.722656 97.878906 243.472656 97.832031 C 243.285156 97.796875 242.914063 97.78125 242.355469 97.78125 Z M 253.34375 104.203125 L 251.652344 104.203125 L 250.984375 102.449219 L 247.914063 102.449219 L 247.28125 104.203125 L 245.636719 104.203125 L 248.628906 96.472656 L 250.265625 96.472656 Z M 250.488281 101.144531 L 249.429688 98.277344 L 248.390625 101.144531 Z M 254.167969 104.203125 L 254.167969 96.472656 L 257.433594 96.472656 C 258.253906 96.472656 258.847656 96.542969 259.222656 96.679688 C 259.59375 96.820313 259.890625 97.066406 260.113281 97.421875 C 260.339844 97.777344 260.449219 98.183594 260.449219 98.640625 C 260.449219 99.21875 260.277344 99.699219 259.941406 100.078125 C 259.605469 100.453125 259.097656 100.695313 258.421875 100.792969 C 258.757813 100.988281 259.035156 101.207031 259.253906 101.441406 C 259.472656 101.675781 259.765625 102.09375 260.132813 102.695313 L 261.074219 104.203125 L 259.21875 104.203125 L 258.097656 102.519531 C 257.699219 101.917969 257.429688 101.542969 257.28125 101.386719 C 257.132813 101.230469 256.980469 101.121094 256.8125 101.0625 C 256.648438 101.003906 256.390625 100.976563 256.03125 100.976563 L 255.71875 100.976563 L 255.71875 104.203125 Z M 255.71875 99.742188 L 256.867188 99.742188 C 257.609375 99.742188 258.074219 99.710938 258.261719 99.648438 C 258.445313 99.585938 258.589844 99.476563 258.695313 99.320313 C 258.800781 99.164063 258.851563 98.972656 258.851563 98.738281 C 258.851563 98.480469 258.78125 98.269531 258.644531 98.109375 C 258.507813 97.949219 258.3125 97.847656 258.0625 97.804688 C 257.933594 97.789063 257.558594 97.78125 256.929688 97.78125 L 255.71875 97.78125 Z M 268.835938 104.203125 L 267.148438 104.203125 L 266.476563 102.449219 L 263.40625 102.449219 L 262.773438 104.203125 L 261.128906 104.203125 L 264.121094 96.472656 L 265.761719 96.472656 Z M 265.980469 101.144531 L 264.921875 98.277344 L 263.886719 101.144531 Z M 269.671875 104.203125 L 269.671875 96.472656 L 271.183594 96.472656 L 274.324219 101.636719 L 274.324219 96.472656 L 275.765625 96.472656 L 275.765625 104.203125 L 274.210938 104.203125 L 271.113281 99.160156 L 271.113281 104.203125 Z M 284.332031 104.203125 L 282.644531 104.203125 L 281.972656 102.449219 L 278.902344 102.449219 L 278.269531 104.203125 L 276.625 104.203125 L 279.617188 96.472656 L 281.253906 96.472656 Z M 281.476563 101.144531 L 280.417969 98.277344 L 279.378906 101.144531 Z M 279.527344 96.027344 L 280.25 94.453125 L 281.898438 94.453125 L 280.457031 96.027344 L 279.527344 96.027344 "/>
<path style=" stroke:none;fill-rule:evenodd;fill:rgb(97.999573%,77.598572%,12.199402%);fill-opacity:1;" d="M 116.851563 90.0625 L 116.851563 18.304688 L 184.136719 18.304688 L 184.136719 32.433594 L 134.824219 32.433594 L 134.824219 90.0625 L 116.851563 90.0625 "/>
<path style=" stroke:none;fill-rule:nonzero;fill:rgb(13.699341%,12.199402%,12.5%);fill-opacity:1;" d="M 235.910156 89.859375 L 235.910156 36.46875 L 258.609375 36.46875 C 264.316406 36.46875 268.457031 36.953125 271.042969 37.910156 C 273.628906 38.867188 275.703125 40.570313 277.257813 43.019531 C 278.8125 45.480469 279.582031 48.277344 279.582031 51.433594 C 279.582031 55.4375 278.402344 58.757813 276.050781 61.367188 C 273.703125 63.964844 270.171875 65.621094 265.484375 66.289063 C 267.820313 67.65625 269.75 69.148438 271.265625 70.777344 C 272.78125 72.40625 274.820313 75.292969 277.394531 79.445313 L 283.921875 89.859375 L 271.027344 89.859375 L 263.234375 78.238281 C 260.460938 74.085938 258.574219 71.472656 257.554688 70.394531 C 256.535156 69.3125 255.453125 68.578125 254.308594 68.167969 C 253.164063 67.769531 251.363281 67.570313 248.875 67.570313 L 246.699219 67.570313 L 246.699219 89.859375 Z M 56.144531 0.460938 L 56.144531 52.144531 C 56.144531 67.40625 51.269531 77.410156 37.542969 77.410156 C 23.820313 77.410156 18.949219 67.40625 18.949219 52.144531 L 18.949219 0.460938 L 0.996094 0.460938 L 0.996094 57.660156 C 0.996094 81.640625 14.585938 91.519531 37.542969 91.519531 C 60.5 91.519531 74.09375 81.640625 74.09375 57.660156 L 74.09375 14.566406 L 94.84375 14.566406 L 94.84375 89.976563 L 112.800781 89.976563 L 112.800781 14.566406 L 184.246094 14.566406 L 184.246094 0.460938 Z M 138.78125 36.65625 L 138.78125 90.0625 L 155.671875 90.0625 L 155.671875 50.773438 L 184.136719 50.773438 L 184.136719 36.65625 Z M 191.832031 89.863281 L 191.832031 36.46875 L 209.125 36.46875 C 215.675781 36.46875 219.953125 36.742188 221.941406 37.273438 C 225 38.070313 227.574219 39.8125 229.636719 42.496094 C 231.699219 45.179688 232.730469 48.648438 232.730469 52.890625 C 232.730469 56.171875 232.136719 58.929688 230.941406 61.15625 C 229.75 63.394531 228.246094 65.148438 226.40625 66.425781 C 224.578125 67.695313 222.714844 68.539063 220.824219 68.953125 C 218.25 69.460938 214.519531 69.722656 209.632813 69.722656 L 202.609375 69.722656 L 202.609375 89.863281 Z M 202.609375 45.503906 L 202.609375 60.648438 L 208.503906 60.648438 C 212.753906 60.648438 215.601563 60.371094 217.03125 59.8125 C 218.460938 59.253906 219.578125 58.382813 220.398438 57.191406 C 221.207031 55.996094 221.617188 54.617188 221.617188 53.039063 C 221.617188 51.097656 221.046875 49.496094 219.902344 48.226563 C 218.769531 46.972656 217.316406 46.175781 215.578125 45.867188 C 214.285156 45.617188 211.699219 45.503906 207.820313 45.503906 Z M 246.699219 59.042969 L 254.667969 59.042969 C 259.839844 59.042969 263.074219 58.832031 264.367188 58.398438 C 265.644531 57.960938 266.652344 57.203125 267.386719 56.132813 C 268.109375 55.066406 268.480469 53.734375 268.480469 52.132813 C 268.480469 50.328125 267.996094 48.886719 267.039063 47.78125 C 266.082031 46.671875 264.726563 45.976563 262.972656 45.679688 C 262.105469 45.566406 259.480469 45.503906 255.105469 45.503906 L 246.699219 45.503906 L 246.699219 59.042969 "/>
</g>
</svg>
